<?xml version="1.0" encoding="UTF-8" standalone="no"?>
<!DOCTYPE svg PUBLIC "-//W3C//DTD SVG 1.1//EN" "http://www.w3.org/Graphics/SVG/1.1/DTD/svg11.dtd">
<svg width="100%" height="100%" viewBox="0 0 11576 1932" version="1.1" xmlns="http://www.w3.org/2000/svg" xmlns:xlink="http://www.w3.org/1999/xlink" xml:space="preserve" xmlns:serif="http://www.serif.com/" style="fill-rule:evenodd;clip-rule:evenodd;stroke-linejoin:round;stroke-miterlimit:2;">
    <g transform="matrix(1,0,0,1,-31356.3,-45156.4)">
        <g transform="matrix(10.9639,0,0,8.06268,259318,6194.51)">
            <g transform="matrix(0.302001,0,0,0.41067,-26004.3,1047.98)">
                <path d="M17258.7,9790.16L17353.7,9790.16L17353.7,9551.83L17503.7,9551.83L17503.7,9790.16L17598.7,9790.16L17598.7,9223.5L17503.7,9223.5L17503.7,9461.83L17353.7,9461.83L17353.7,9223.5L17258.7,9223.5L17258.7,9790.16Z" style="fill:rgb(239,225,213);fill-rule:nonzero;"/>
                <path d="M17682.1,9790.16L17780.4,9790.16L17808.7,9686.83L17993.7,9647.66L18032.9,9790.16L18132.1,9790.16L17969.6,9223.5L17844.6,9223.5L17682.1,9790.16ZM17833.7,9595.16L17907.1,9328.5L17971.2,9566L17833.7,9595.16Z" style="fill:rgb(239,225,213);fill-rule:nonzero;"/>
                <path d="M18186.2,9790.16L18284.6,9790.16L18312.9,9686.83L18497.9,9647.66L18537.1,9790.16L18636.2,9790.16L18473.7,9223.5L18348.7,9223.5L18186.2,9790.16ZM18337.9,9595.16L18411.2,9328.5L18475.4,9566L18337.9,9595.16Z" style="fill:rgb(239,225,213);fill-rule:nonzero;"/>
                <path d="M18719.6,9790.16L18814.6,9790.16L18814.6,9623.5L18872.9,9623.5C18972.9,9623.5 19071.2,9558.5 19071.2,9423.5C19071.2,9288.5 18972.9,9223.5 18872.9,9223.5L18719.6,9223.5L18719.6,9790.16ZM18814.6,9534.33L18814.6,9311.83L18862.1,9311.83C18926.2,9311.83 18977.9,9341 18977.9,9423.5C18977.9,9506 18926.2,9534.33 18862.1,9534.33L18814.6,9534.33Z" style="fill:rgb(239,225,213);fill-rule:nonzero;"/>
                <path d="M19267.1,9798.5C19365.4,9798.5 19433.7,9734.33 19433.7,9647.66C19433.7,9507.66 19247.9,9464.33 19247.9,9366C19247.9,9326 19278.7,9304.33 19322.9,9304.33C19357.9,9304.33 19382.9,9317.66 19398.7,9332.66L19398.7,9239.33C19381.2,9228.5 19352.1,9215.16 19306.2,9215.16C19201.2,9215.16 19149.6,9283.5 19149.6,9358.5C19149.6,9500.16 19334.6,9548.5 19334.6,9641C19334.6,9683.5 19295.4,9707.66 19249.6,9707.66C19201.2,9707.66 19164.6,9682.66 19142.9,9655.16L19142.9,9751.83C19162.9,9774.33 19207.1,9798.5 19267.1,9798.5Z" style="fill:rgb(239,225,213);fill-rule:nonzero;"/>
                <path d="M19487.9,9790.16L19586.2,9790.16L19614.6,9686.83L19799.6,9647.66L19838.7,9790.16L19937.9,9790.16L19775.4,9223.5L19650.4,9223.5L19487.9,9790.16ZM19639.6,9595.16L19712.9,9328.5L19777.1,9566L19639.6,9595.16Z" style="fill:rgb(239,225,213);fill-rule:nonzero;"/>
                <path d="M20021.2,9790.16L20292.1,9790.16L20292.1,9700.16L20116.2,9700.16L20116.2,9223.5L20021.2,9223.5L20021.2,9790.16Z" style="fill:rgb(239,225,213);fill-rule:nonzero;"/>
                <path d="M20571.2,9798.5C20697.1,9798.5 20754.6,9716.83 20754.6,9613.5L20754.6,9223.5L20659.6,9223.5L20659.6,9611.83C20659.6,9672.66 20632.9,9709.33 20571.2,9709.33C20508.7,9709.33 20482.9,9672.66 20482.9,9611.83L20482.9,9223.5L20387.9,9223.5L20387.9,9613.5C20387.9,9716.83 20444.6,9798.5 20571.2,9798.5Z" style="fill:rgb(239,225,213);fill-rule:nonzero;"/>
            </g>
        </g>
    </g>
</svg>
